<?xml version="1.0" encoding="UTF-8" standalone="no"?>
<!-- Created with Inkscape (http://www.inkscape.org/) -->

<svg
   width="88.350121mm"
   height="73.070312mm"
   viewBox="0 0 88.350121 73.070312"
   version="1.1"
   id="svg5"
   xmlns="http://www.w3.org/2000/svg"
   xmlns:svg="http://www.w3.org/2000/svg">
  <defs
     id="defs2">
    <linearGradient
       id="linearGradient1795">
      <stop
         style="stop-color:#1a1a1a;stop-opacity:1;"
         offset="0"
         id="stop1793" />
    </linearGradient>
  </defs>
  <g
     id="layer1"
     transform="translate(-26.077376,-35.055415)">
    <g
       id="g3200"
       transform="matrix(0.99977433,-0.27713422,0.02124368,0.99433704,-16.539759,24.731232)">
      <g
         id="g3186">
        <g
           id="g3176">
          <g
             id="g3167">
            <g
               id="g3159">
              <circle
                 id="path2711"
                 style="fill:#ff0000;stroke:#1a1a1a;stroke-width:0.264583"
                 cx="138.77522"
                 cy="45.732742"
                 r="0.070017889" />
              <g
                 id="g2827">
                <path
                   style="opacity:0.5;fill:#0000ff;stroke:#00ffff;stroke-width:0.264583"
                   id="path2705"
                   d="m 57.286421,51.617977 c 3.715885,-0.302006 4.285941,-0.441687 8.750099,-0.596712 12.200709,-0.423688 19.396744,-0.553125 21.643269,-0.311811 7.126062,0.765457 10.293071,0.671801 17.399861,1.168701 l -2.11458,-1.557718 v 0 c -6.453543,-0.399786 -13.47359,-0.877914 -19.918197,-1.090565 -9.651121,-0.318453 -19.287974,-0.01939 -28.93786,0.07958 l 3.177408,2.308521 z" />
                <path
                   style="opacity:0.5;fill:#0000ff;stroke:#00ffff;stroke-width:0.264583"
                   id="path2709"
                   d="m 78.70509,51.055431 c 0.265443,8.335055 0.855609,13.516038 0.850543,21.854601 -0.0024,5.349299 -0.632711,13.857534 -0.726422,19.205874 l 3.194672,1.627764 v 0 c -0.09305,-5.405715 -1.095417,-12.298655 -1.098119,-17.705307 -0.005,-8.239014 0.02395,-14.80744 0.292992,-23.042829 z" />
                <path
                   style="opacity:0.5;fill:#0000ff;stroke:#00ffff;stroke-width:0.20781;stroke-opacity:1"
                   d="m 89.551502,65.73096 -0.231608,26.109354 c 0,0 27.778546,3.260303 24.073436,-6.422628 -3.62105,-9.463263 -13.37792,-11.791052 -11.79665,-10.544264 3.42836,2.703163 21.29978,-10.529644 10.22961,-15.074227 -10.81532,-4.439961 -21.714417,6.692247 -21.714417,6.692247"
                   id="path2822" />
              </g>
            </g>
          </g>
        </g>
      </g>
      <g
         id="g3152">
        <g
           id="g3148">
          <ellipse
             style="opacity:0.5;fill:#ffccaa;stroke:#000080;stroke-width:0.264583;stroke-opacity:1"
             id="path2885"
             cx="85.305229"
             cy="70.901848"
             rx="44.046494"
             ry="34.475208" />
        </g>
      </g>
    </g>
  </g>
</svg>
